<svg id="Layer_1" data-name="Layer 1" xmlns="http://www.w3.org/2000/svg" viewBox="0 0 1500 1500"><defs><style>.cls-1{fill:#29992f;}.cls-2{fill:#a4f7a6;}</style></defs><path class="cls-1" d="M728.28,826c1.23.89,2.48,1.73,3.68,2.65,7.79,6,15.65,12,23.33,18.17,3.41,2.74,3.18,4.71-.26,7.42-4.83,3.81-15.26,4.05-20.34.47-3.83-2.71-7.65-5.44-11.49-8.15s-7.55-5.24-9.62-9.88c-1.8-4-5.63-6.18-10.11-6.82-.9-.14-1.8-.31-3-.52,2-7.69,4.35-15.55-2.5-21.63-6.2-5.51-13.73-6.28-21.93-3.36-1.86-8.57-6.15-14.47-15.41-15.25-6.43-.53-11.45,1.33-14.14,7.86a22.71,22.71,0,0,1-2.61-1.45c-9.07-6.7-18.08-13.48-27.2-20.11-2-1.48-2.87-3-2.31-5.5,6-27.19,11.89-54.41,17.92-81.59.85-3.8,2.28-7.48,3.5-11.19a18.3,18.3,0,0,1,1.35-2.47,69.07,69.07,0,0,0,26.91,5l.42,1c-1.09,1.15-2.14,2.35-3.28,3.44-4.85,4.67-9.59,9.47-14.65,13.9-3.3,2.89-3.34,6.14-2.16,9.76a13.22,13.22,0,0,0,14,8.83,71.69,71.69,0,0,0,14.19-2.93c9.2-2.85,17.4-7.77,25.35-13.13s17.23-8.29,26.52-10.32a18.81,18.81,0,0,1,14.73,3.06c30.65,20.64,61.48,41,92.14,61.64a65.27,65.27,0,0,1,19.94,21.58c5.32,9.15,4.06,20.12-3.48,27.11-3.82,3.54-7.92,4.46-12.49,3a38.42,38.42,0,0,1-9.64-4.69c-9.87-6.64-19.56-13.55-29.34-20.34a8.4,8.4,0,0,0-4.44-1.76c1.15,1.08,2.33,2.12,3.42,3.25,5.22,5.39,10.67,10.59,15.55,16.28,6.72,7.86,7,16.54,2.67,25.86-3.53,7.63-14,10.72-21.35,8.15a11.47,11.47,0,0,1-3.35-2.49c-8.43-7.48-16.83-15-25.28-22.47-1.27-1.12-2.39-3.07-5.26-1.55,1.32,1.44,2.4,2.69,3.55,3.87,7.54,7.73,15.13,15.43,22.63,23.2a13.49,13.49,0,0,1,3,4.16c1.66,4.22-.27,8.5-4.56,10.53-4.72,2.23-9.76,2-14.75,1.51-1.25-.13-2.46-1.27-3.56-2.11-7.48-5.7-14.89-11.48-22.39-17.14-4-3-8.64-4.6-13.25-6.21Z"/><path class="cls-1" d="M899.25,745.63c-4.63,2.28-8.9,4.21-13,6.46a33,33,0,0,0-6.39,4.62c-7,6.49-13.86,13.12-21,20-.89-1.12-1.57-1.88-2.16-2.71-7.44-10.33-15.67-19.74-26.51-26.89-29.8-19.65-59.38-39.65-89-59.63-3.73-2.52-7.32-4-11.81-2.68-8.08,2.39-16.2,4.65-24.29,7a6.58,6.58,0,0,0-2.74,1.72c-6.1,6.42-13.85,10.13-21.86,13.39-3.76,1.54-7.61,2.9-11.49,4.09a24.29,24.29,0,0,1-15.68-.69c-3.67-1.34-5.08-3.79-4.43-7.28a7.51,7.51,0,0,1,1.87-3.62A364.09,364.09,0,0,1,688.65,665a17.91,17.91,0,0,1,5.07-2.33q19.66-7,39.38-13.93a41,41,0,0,1,21.72-1.71c22.6,4.32,45.24,8.44,67.89,12.51,5.85,1,11.79,1.81,17.72.39,1.67-.4,3.6-.53,4.9-1.48,3.32-2.43,6-1.14,8.38,1.12a88.43,88.43,0,0,1,9.22,9.95c7.17,9.38,12.71,19.78,17.51,30.49,6.14,13.71,11.74,27.65,17.55,41.51C898.46,742.68,898.72,743.89,899.25,745.63Z"/><path class="cls-1" d="M606.89,773.17l-42.2-7.37c-.17-3.78,28.27-98.09,32.22-107,11.3,3.13,22.34,7.26,33.71,10.8-4.55,17.57-9.08,34.66-13.38,51.8C613,738.33,608.85,755.34,606.89,773.17Z"/><path class="cls-1" d="M853.28,653.3c1.54-.84,2.32-1.33,3.15-1.7q11.77-5.29,23.58-10.54c3.83-1.69,4-1.79,6.78,1.46A133.3,133.3,0,0,1,896,654.39c10.83,16,18.82,33.57,26.19,51.38,4,9.69,7.61,19.55,11.37,29.35.61,1.58,1.06,3.22,1.77,5.43l-28.85,8.68c-3-8.12-5.61-15.79-8.53-23.35-3.89-10.08-7.65-20.22-12.1-30a175.43,175.43,0,0,0-11.3-20.55A70.41,70.41,0,0,0,853.28,653.3Z"/><path class="cls-1" d="M666.93,827.92c1.1-2.85,2-5.81,3.36-8.53,1.62-3.2,3.74-6.15,5.46-9.3a5.08,5.08,0,0,1,4.41-3,17.67,17.67,0,0,1,12.34,3.58,12.5,12.5,0,0,1,3.61,13.67c-1.59,4.25-3.41,8.41-5.27,12.55-3.07,6.87-13.38,8-18,3.23C668.9,835.93,667.39,833.23,666.93,827.92Z"/><path class="cls-1" d="M640.71,815.69a77.44,77.44,0,0,1,3.15-8.09c1.7-3.32,3.9-6.38,5.74-9.64,1.13-2,2.74-3.16,4.93-2.8,3.33.55,6.86.94,9.86,2.35,5.3,2.51,7.41,9.17,5.21,14.92-1.51,3.93-3.14,7.82-4.93,11.62a11.22,11.22,0,0,1-18.06,3.29C643.43,824.26,640.56,820.91,640.71,815.69Z"/><path class="cls-1" d="M727.19,855.54c-6.33,2.59-12.62,4.7-19.48,4.55a8.36,8.36,0,0,1-5.93-2.23c-2.49-2.36-5.21-4.46-7.76-6.76-3.57-3.22-3.77-7.55-.61-11.15,4.77-5.45,11.32-6.08,16.49-1.27C715.69,844.07,721.23,849.71,727.19,855.54Z"/><path class="cls-1" d="M642.64,802c-1.38,4-3.56,7-8.11,8.06-4.87,1.07-9.47.61-13.28-2.6a14.31,14.31,0,0,1-3.94-6.16c-1.45-4.26-.2-11.65,2.16-16.3C624.23,786.12,636.91,795.4,642.64,802Z"/><path class="cls-2" d="M448.69,677.3c-5.06,5.84-10.2,11.62-15.16,17.55C412.5,720,394,746.76,380,776.44c-11.53,24.44-19.54,49.93-20.63,77.17-1.06,26.18,5.28,50.29,21.21,71.43a118.23,118.23,0,0,0,40.54,33.88c19.67,10.25,40.63,16.3,62.52,19.65,34,5.2,67.86,4.36,101.83.33,38-4.51,75-13.2,111.42-24.69a808,808,0,0,0,88.07-34,822.83,822.83,0,0,0,101.39-54.59q33-20.79,63.84-44.62a703,703,0,0,0,56-47.67c14.05-13.33,27.82-27,40.24-41.86,11.68-14,23-28.26,33.16-43.45a334.69,334.69,0,0,0,27.1-48c9.76-21.62,16.77-44,18.51-67.86,2-27.1-3.47-52.36-19.26-74.89-9.14-13-21-23.13-34.53-31.37A155,155,0,0,0,1042,452.24a11.33,11.33,0,0,1-4.67-2.74c2.7.57,5.42,1.06,8.1,1.72,18.72,4.6,36.89,10.67,54,19.75,20.45,10.85,37.91,25.13,51.11,44.27a120.15,120.15,0,0,1,17.52,38.6c6.11,23.74,5.83,47.54,1.19,71.51-4.48,23.17-12.57,45.09-23,66.08a378.12,378.12,0,0,1-43.34,68.05c-17.47,21.82-35.71,43-55.65,62.56-10.46,10.29-21.54,20-32.51,29.71-7.6,6.75-15.27,13.44-23.27,19.69-11.3,8.83-22.86,17.36-34.48,25.78-8.75,6.34-17.68,12.43-26.67,18.42Q899.46,936.16,867,953.91a889.2,889.2,0,0,1-89.08,42.63A787.15,787.15,0,0,1,690,1026.89c-34.75,9.66-70,17-105.88,20.77-29.76,3.12-59.57,3.94-89.4,1.09-21.73-2.07-43.28-5.54-63.93-12.77-24.29-8.49-46.64-20.55-65.25-38.72-22.68-22.15-35-49.1-37.69-80.66-2.35-27.74,2.65-54.38,11.71-80.38,10.71-30.74,26.7-58.75,45.23-85.34C402.67,725.25,423,701.67,445,679.52c1-1,2.06-1.93,3.09-2.89Z"/><path class="cls-1" d="M450.5,670.94c-4.91,5.68-9.89,11.28-14.71,17-20.4,24.36-38.34,50.37-51.93,79.17-11.19,23.7-19,48.44-20,74.87-1,25.4,5.12,48.79,20.58,69.3a114.86,114.86,0,0,0,39.33,32.87c19.09,9.94,39.42,15.81,60.66,19.07,32.94,5,65.84,4.22,98.8.31,36.85-4.37,72.77-12.81,108.1-23.95a783.4,783.4,0,0,0,85.44-33,799.91,799.91,0,0,0,98.38-53q32-20.18,61.93-43.29a684.42,684.42,0,0,0,54.32-46.25c13.62-12.94,27-26.19,39-40.62,11.33-13.57,22.34-27.41,32.17-42.16a326.05,326.05,0,0,0,26.3-46.55c9.46-21,16.27-42.73,17.95-65.84,1.91-26.3-3.37-50.8-18.69-72.66-8.86-12.65-20.38-22.44-33.5-30.44a150.58,150.58,0,0,0-28.47-13.3,10.89,10.89,0,0,1-4.53-2.66c2.62.55,5.26,1,7.86,1.67,18.16,4.46,35.78,10.36,52.37,19.16,19.84,10.53,36.77,24.39,49.58,43a116.5,116.5,0,0,1,17,37.44c5.92,23,5.65,46.13,1.15,69.38-4.35,22.48-12.2,43.75-22.35,64.12a366.52,366.52,0,0,1-42,66c-17,21.17-34.65,41.68-54,60.7-10.16,10-20.91,19.35-31.55,28.82-7.37,6.55-14.81,13-22.57,19.1-11,8.58-22.18,16.85-33.46,25-8.48,6.15-17.15,12.06-25.88,17.87q-29.92,19.9-61.48,37.13a863.29,863.29,0,0,1-86.42,41.36,764,764,0,0,1-85.24,29.44c-33.72,9.38-67.89,16.51-102.73,20.16-28.88,3-57.8,3.82-86.74,1-21.09-2-42-5.38-62-12.39-23.56-8.24-45.25-19.94-63.31-37.57-22-21.48-34-47.63-36.55-78.25-2.29-26.92,2.56-52.76,11.35-78,10.39-29.82,25.9-57,43.89-82.8A521.73,521.73,0,0,1,447,673.1c1-1,2-1.87,3-2.8C450.14,670.51,450.32,670.73,450.5,670.94Z"/></svg>