<svg id="Layer_1" data-name="Layer 1" xmlns="http://www.w3.org/2000/svg" viewBox="0 0 1500 1500"><defs><style>.cls-1,.cls-2{fill:#fff;}.cls-2{font-size:228.46px;font-family:Montserrat-SemiBold, Montserrat;font-weight:600;}.cls-3{letter-spacing:-0.01em;}</style></defs><path class="cls-1" d="M755.48,647c1,.7,2,1.37,2.9,2.1,6.16,4.76,12.36,9.47,18.43,14.35,2.7,2.16,2.51,3.72-.2,5.86-3.82,3-12.05,3.21-16.07.37l-9.08-6.44c-3-2.12-6-4.13-7.6-7.8-1.42-3.17-4.45-4.88-8-5.39-.71-.11-1.42-.24-2.38-.41,1.62-6.07,3.43-12.29-2-17.09-4.9-4.35-10.85-5-17.32-2.66-1.48-6.76-4.86-11.43-12.18-12-5.08-.43-9,1-11.17,6.21a18.59,18.59,0,0,1-2.07-1.15c-7.16-5.29-14.28-10.65-21.48-15.88-1.61-1.17-2.27-2.36-1.83-4.35,4.74-21.49,9.4-43,14.16-64.46.67-3,1.8-5.91,2.77-8.85a14,14,0,0,1,1.06-2,54.53,54.53,0,0,0,21.26,4l.33.82c-.86.91-1.69,1.85-2.59,2.72-3.83,3.69-7.58,7.47-11.57,11-2.61,2.28-2.64,4.85-1.71,7.71a10.45,10.45,0,0,0,11.07,7,56.54,56.54,0,0,0,11.21-2.32c7.27-2.25,13.75-6.14,20-10.37s13.61-6.55,20.95-8.16a14.88,14.88,0,0,1,11.64,2.42c24.22,16.31,48.58,32.4,72.8,48.7a51.61,51.61,0,0,1,15.75,17c4.2,7.23,3.21,15.89-2.75,21.42a9.37,9.37,0,0,1-9.87,2.37,30.67,30.67,0,0,1-7.61-3.71c-7.8-5.25-15.46-10.7-23.18-16.07a6.7,6.7,0,0,0-3.51-1.39c.9.86,1.84,1.68,2.7,2.57,4.12,4.26,8.43,8.37,12.28,12.86,5.32,6.21,5.52,13.07,2.12,20.44-2.79,6-11,8.47-16.87,6.43a9.11,9.11,0,0,1-2.65-2c-6.66-5.92-13.29-11.86-20-17.76-1-.88-1.89-2.43-4.16-1.22,1,1.13,1.9,2.12,2.81,3.05,6,6.12,11.95,12.2,17.88,18.34a10.57,10.57,0,0,1,2.33,3.29c1.31,3.32-.21,6.71-3.6,8.31-3.72,1.77-7.71,1.61-11.65,1.2-1-.11-1.95-1-2.82-1.68-5.9-4.49-11.75-9.06-17.68-13.53-3.16-2.38-6.83-3.64-10.47-4.91Z"/><path class="cls-1" d="M890.55,583.46c-3.65,1.8-7,3.33-10.26,5.11a25.17,25.17,0,0,0-5,3.65c-5.53,5.12-11,10.36-16.63,15.77-.71-.88-1.24-1.48-1.71-2.13-5.88-8.17-12.38-15.61-20.94-21.25-23.55-15.53-46.91-31.33-70.29-47.11-2.94-2-5.78-3.17-9.33-2.12-6.38,1.89-12.8,3.67-19.18,5.56A5.2,5.2,0,0,0,735,542.3c-4.82,5.07-11,8-17.27,10.58-3,1.21-6,2.29-9.08,3.23a19.14,19.14,0,0,1-12.39-.55c-2.9-1-4-3-3.5-5.75a6,6,0,0,1,1.48-2.86,287.49,287.49,0,0,1,29.93-27.17,14.25,14.25,0,0,1,4-1.84q15.54-5.54,31.12-11a32.44,32.44,0,0,1,17.15-1.34q26.79,5.12,53.64,9.87c4.62.83,9.31,1.44,14,.31,1.32-.31,2.84-.41,3.87-1.16,2.62-1.92,4.76-.91,6.62.88a71.32,71.32,0,0,1,7.29,7.87,119.78,119.78,0,0,1,13.83,24.09c4.85,10.82,9.28,21.84,13.86,32.79C889.93,581.13,890.13,582.09,890.55,583.46Z"/><path class="cls-1" d="M659.56,605.22l-33.33-5.83c-.14-3,22.33-77.49,25.45-84.56,8.93,2.47,17.65,5.74,26.63,8.53-3.59,13.89-7.17,27.38-10.57,40.93S661.11,591.14,659.56,605.22Z"/><path class="cls-1" d="M854.23,510.51c1.22-.66,1.83-1.05,2.49-1.34q9.3-4.19,18.63-8.32c3-1.34,3.17-1.42,5.35,1.15a105.72,105.72,0,0,1,7.27,9.37c8.56,12.68,14.87,26.53,20.69,40.6,3.17,7.66,6,15.45,9,23.19.48,1.25.84,2.55,1.4,4.29l-22.8,6.85c-2.33-6.41-4.43-12.47-6.73-18.45-3.07-8-6-16-9.56-23.74A140,140,0,0,0,871,527.88,55.7,55.7,0,0,0,854.23,510.51Z"/><path class="cls-1" d="M707,648.48c.88-2.26,1.58-4.59,2.66-6.74,1.28-2.53,3-4.86,4.31-7.35a4,4,0,0,1,3.48-2.37,13.9,13.9,0,0,1,9.75,2.83,9.86,9.86,0,0,1,2.85,10.8c-1.25,3.35-2.69,6.64-4.15,9.91-2.43,5.43-10.58,6.34-14.19,2.56C708.56,654.81,707.37,652.67,707,648.48Z"/><path class="cls-1" d="M686.29,638.81a63.06,63.06,0,0,1,2.48-6.39c1.35-2.62,3.09-5,4.54-7.62.89-1.58,2.17-2.49,3.89-2.21,2.64.44,5.43.74,7.8,1.86,4.18,2,5.85,7.25,4.11,11.79-1.19,3.1-2.48,6.18-3.89,9.18A8.87,8.87,0,0,1,691,648C688.44,645.59,686.17,642.94,686.29,638.81Z"/><path class="cls-1" d="M754.62,670.3c-5,2-10,3.71-15.4,3.59a6.6,6.6,0,0,1-4.68-1.76c-2-1.87-4.12-3.53-6.13-5.34a5.88,5.88,0,0,1-.49-8.81c3.78-4.3,9-4.8,13-1C745.53,661.23,749.9,665.69,754.62,670.3Z"/><path class="cls-1" d="M687.81,628c-1.09,3.15-2.81,5.58-6.4,6.37-3.85.85-7.49.49-10.49-2.05a11.27,11.27,0,0,1-3.12-4.86c-1.15-3.37-.15-9.21,1.71-12.89C673.27,615.45,683.29,622.79,687.81,628Z"/><path class="cls-1" d="M534.58,529.47c-4,4.62-8.06,9.19-12,13.87-16.61,19.83-31.22,41-42.29,64.46-9.11,19.31-15.44,39.45-16.3,61-.83,20.69,4.17,39.73,16.76,56.44a93.55,93.55,0,0,0,32,26.77c15.54,8.09,32.1,12.87,49.39,15.52,26.83,4.11,53.61,3.44,80.46.26,30-3.56,59.25-10.43,88-19.51a635.56,635.56,0,0,0,69.58-26.83,649.94,649.94,0,0,0,80.11-43.13Q906.42,661.87,930.8,643A557.05,557.05,0,0,0,975,605.38c11.09-10.53,22-21.32,31.79-33.08A400.78,400.78,0,0,0,1033,538a264.25,264.25,0,0,0,21.41-37.91c7.71-17.08,13.25-34.79,14.62-53.61,1.56-21.42-2.74-41.37-15.22-59.17-7.21-10.3-16.6-18.27-27.28-24.79a123.52,123.52,0,0,0-23.18-10.83,8.84,8.84,0,0,1-3.69-2.16c2.13.45,4.28.83,6.4,1.36,14.78,3.63,29.14,8.43,42.65,15.6,16.15,8.57,29.94,19.86,40.37,35A95,95,0,0,1,1103,431.93c4.83,18.76,4.6,37.57.94,56.5a203.81,203.81,0,0,1-18.2,52.21,298.53,298.53,0,0,1-34.24,53.77,558.77,558.77,0,0,1-44,49.42c-8.26,8.13-17,15.76-25.69,23.47-6,5.34-12,10.62-18.38,15.56-8.93,7-18.06,13.72-27.24,20.37-6.91,5-14,9.82-21.07,14.55Q890.73,734,865,748a704.84,704.84,0,0,1-70.37,33.68,623.23,623.23,0,0,1-69.42,24c-27.46,7.64-55.28,13.45-83.65,16.42-23.52,2.46-47.07,3.11-70.64.86-17.17-1.64-34.19-4.38-50.51-10.09-19.18-6.71-36.84-16.24-51.55-30.6-17.92-17.49-27.66-38.79-29.77-63.72-1.86-21.92,2.09-43,9.25-63.51,8.46-24.28,21.09-46.41,35.74-67.42a424.65,424.65,0,0,1,47.58-56.38c.78-.79,1.63-1.52,2.44-2.28Z"/><path class="cls-1" d="M536,524.46c-3.88,4.48-7.82,8.9-11.62,13.45-16.12,19.24-30.29,39.79-41,62.54-8.84,18.73-15,38.27-15.82,59.15-.8,20.07,4,38.55,16.26,54.76a90.83,90.83,0,0,0,31.08,26C530,748.18,546,752.82,562.8,755.39c26,4,52,3.34,78.06.25,29.11-3.45,57.49-10.12,85.4-18.92a617.18,617.18,0,0,0,67.51-26,629.57,629.57,0,0,0,77.72-41.84q25.28-15.93,48.93-34.2a539.86,539.86,0,0,0,42.92-36.54c10.76-10.22,21.32-20.69,30.85-32.09a389.75,389.75,0,0,0,25.41-33.31,256.48,256.48,0,0,0,20.78-36.78c7.48-16.58,12.85-33.76,14.18-52,1.51-20.77-2.66-40.13-14.76-57.41-7-10-16.11-17.72-26.47-24a119.39,119.39,0,0,0-22.5-10.51,8.67,8.67,0,0,1-3.58-2.1c2.08.44,4.16.81,6.22,1.32,14.34,3.53,28.27,8.18,41.37,15.14,15.68,8.31,29.05,19.27,39.18,33.94a92.05,92.05,0,0,1,13.43,29.58c4.68,18.2,4.46,36.45.91,54.81a198,198,0,0,1-17.65,50.66,289.48,289.48,0,0,1-33.23,52.16,540.5,540.5,0,0,1-42.65,47.95c-8,7.89-16.52,15.3-24.93,22.78-5.82,5.17-11.7,10.3-17.83,15.09C943.4,680,934.55,686.58,925.64,693c-6.7,4.86-13.55,9.53-20.45,14.12q-23.64,15.74-48.57,29.34a681.6,681.6,0,0,1-68.28,32.68A605.86,605.86,0,0,1,721,792.43a495.81,495.81,0,0,1-81.16,15.92c-22.82,2.39-45.66,3-68.53.84-16.66-1.59-33.17-4.25-49-9.79-18.62-6.51-35.75-15.76-50-29.69-17.39-17-26.83-37.63-28.89-61.82-1.8-21.27,2-41.68,9-61.62,8.2-23.56,20.46-45,34.67-65.41a412.1,412.1,0,0,1,46.17-54.7c.76-.77,1.58-1.48,2.37-2.21Z"/><text class="cls-2" transform="translate(296.4 1089.96)">O<tspan class="cls-3" x="192.36" y="0">D</tspan><tspan x="378.78" y="0">ANA</tspan></text></svg>