<svg id="Layer_1" data-name="Layer 1" xmlns="http://www.w3.org/2000/svg" viewBox="0 0 1500 1500"><defs><style>.cls-1,.cls-3{fill:#29992f;}.cls-2{fill:#a4f7a6;}.cls-3{font-size:144.34px;font-family:Montserrat-SemiBold, Montserrat;font-weight:600;}.cls-4{letter-spacing:-0.01em;}</style></defs><path class="cls-1" d="M438.3,788c.61.44,1.24.86,1.83,1.32,3.9,3,7.82,6,11.65,9.07,1.7,1.37,1.59,2.35-.13,3.7-2.41,1.91-7.61,2-10.15.24-1.92-1.36-3.82-2.72-5.74-4.07s-3.76-2.61-4.8-4.93a6.18,6.18,0,0,0-5-3.41c-.45-.06-.89-.15-1.5-.26,1-3.83,2.17-7.76-1.25-10.79-3.1-2.75-6.86-3.14-11-1.68-.93-4.28-3.07-7.22-7.69-7.61-3.21-.27-5.72.66-7.06,3.92a11.29,11.29,0,0,1-1.3-.72c-4.53-3.35-9-6.73-13.58-10a2.38,2.38,0,0,1-1.15-2.75c3-13.57,5.93-27.15,8.95-40.72a58.25,58.25,0,0,1,1.74-5.59,9,9,0,0,1,.67-1.23,34.73,34.73,0,0,0,13.44,2.52l.2.51c-.54.58-1.06,1.17-1.63,1.72-2.42,2.33-4.79,4.72-7.32,6.94-1.64,1.44-1.66,3.06-1.07,4.87a6.59,6.59,0,0,0,7,4.41,35.18,35.18,0,0,0,7.09-1.47,48.44,48.44,0,0,0,12.65-6.55,37.52,37.52,0,0,1,13.24-5.15,9.37,9.37,0,0,1,7.35,1.53c15.3,10.3,30.69,20.47,46,30.77a32.49,32.49,0,0,1,10,10.77,10.77,10.77,0,0,1-1.74,13.53,5.92,5.92,0,0,1-6.24,1.5,19.5,19.5,0,0,1-4.81-2.35c-4.92-3.31-9.76-6.76-14.64-10.15a4.24,4.24,0,0,0-2.22-.88c.57.54,1.16,1.06,1.71,1.63,2.6,2.69,5.33,5.28,7.76,8.12,3.36,3.93,3.49,8.26,1.33,12.91-1.76,3.81-7,5.36-10.65,4.07a5.67,5.67,0,0,1-1.68-1.24c-4.21-3.74-8.4-7.5-12.62-11.22-.63-.56-1.19-1.53-2.62-.77.66.71,1.2,1.34,1.77,1.93,3.77,3.86,7.55,7.7,11.3,11.58A6.63,6.63,0,0,1,467.8,794a4,4,0,0,1-2.27,5.25c-2.36,1.12-4.87,1-7.37.76a4.28,4.28,0,0,1-1.77-1.06c-3.73-2.84-7.43-5.73-11.18-8.55a23.36,23.36,0,0,0-6.61-3.1Z"/><path class="cls-1" d="M523.64,747.82c-2.31,1.14-4.44,2.1-6.48,3.22a15.83,15.83,0,0,0-3.19,2.31c-3.49,3.24-6.92,6.55-10.51,10-.45-.56-.78-.94-1.08-1.35-3.71-5.16-7.82-9.86-13.23-13.43-14.88-9.81-29.64-19.79-44.41-29.76-1.86-1.26-3.65-2-5.89-1.34-4,1.19-8.09,2.32-12.13,3.52a3.23,3.23,0,0,0-1.37.85c-3,3.21-6.91,5.06-10.91,6.69-1.87.76-3.8,1.44-5.73,2a12.08,12.08,0,0,1-7.83-.35,3,3,0,0,1-2.21-3.63,3.83,3.83,0,0,1,.93-1.81,182,182,0,0,1,18.92-17.16,8.88,8.88,0,0,1,2.53-1.17q9.81-3.49,19.66-6.95a20.37,20.37,0,0,1,10.84-.85q16.92,3.23,33.88,6.24a21.46,21.46,0,0,0,8.85.19,7.08,7.08,0,0,0,2.45-.73c1.65-1.21,3-.57,4.18.56a44.9,44.9,0,0,1,4.6,5,75.92,75.92,0,0,1,8.74,15.22c3.07,6.84,5.86,13.81,8.76,20.72A20.78,20.78,0,0,1,523.64,747.82Z"/><path class="cls-1" d="M377.7,761.57l-21.06-3.68c-.08-1.89,14.11-49,16.08-53.43,5.64,1.56,11.15,3.62,16.83,5.39-2.27,8.77-4.53,17.3-6.68,25.85A192,192,0,0,0,377.7,761.57Z"/><path class="cls-1" d="M500.69,701.73c.77-.42,1.16-.66,1.57-.85q5.89-2.64,11.78-5.26c1.91-.84,2-.89,3.38.73a66.9,66.9,0,0,1,4.59,5.92c5.41,8,9.39,16.76,13.07,25.65,2,4.84,3.8,9.76,5.68,14.65.3.79.52,1.61.88,2.71l-14.4,4.33c-1.48-4.05-2.8-7.88-4.26-11.65-1.94-5-3.82-10.09-6-15a86.72,86.72,0,0,0-5.64-10.26A35,35,0,0,0,500.69,701.73Z"/><path class="cls-1" d="M407.68,788.9c.55-1.43,1-2.9,1.67-4.26.81-1.6,1.87-3.07,2.73-4.65a2.53,2.53,0,0,1,2.2-1.49,8.74,8.74,0,0,1,6.16,1.79,6.24,6.24,0,0,1,1.8,6.82c-.79,2.12-1.7,4.2-2.63,6.26-1.53,3.43-6.68,4-9,1.62C408.66,792.9,407.9,791.54,407.68,788.9Z"/><path class="cls-1" d="M394.59,782.79a37.94,37.94,0,0,1,1.57-4c.85-1.65,1.95-3.18,2.86-4.81a2.32,2.32,0,0,1,2.46-1.4,18.8,18.8,0,0,1,4.93,1.18,5.85,5.85,0,0,1,2.6,7.44c-.76,2-1.57,3.91-2.47,5.8a5.6,5.6,0,0,1-9,1.65C395.94,787.07,394.51,785.4,394.59,782.79Z"/><path class="cls-1" d="M437.76,802.68A23.94,23.94,0,0,1,428,805a4.15,4.15,0,0,1-3-1.11c-1.24-1.18-2.6-2.23-3.87-3.38a3.71,3.71,0,0,1-.31-5.56c2.38-2.72,5.65-3,8.24-.63C432,797,434.78,799.77,437.76,802.68Z"/><path class="cls-1" d="M395.55,775.94c-.69,2-1.78,3.52-4.05,4a7.27,7.27,0,0,1-6.62-1.3,7.19,7.19,0,0,1-2-3.07c-.72-2.13-.09-5.82,1.08-8.14C386.36,768,392.69,772.66,395.55,775.94Z"/><path class="cls-2" d="M298.74,713.71c-2.53,2.92-5.1,5.8-7.57,8.76-10.5,12.53-19.73,25.91-26.72,40.73-5.76,12.2-9.76,24.92-10.3,38.52-.53,13.07,2.64,25.1,10.59,35.66A59.16,59.16,0,0,0,285,854.29a99.72,99.72,0,0,0,31.21,9.81c16.95,2.59,33.87,2.17,50.83.16a303.2,303.2,0,0,0,55.62-12.33,402,402,0,0,0,44-16.95,409.37,409.37,0,0,0,50.61-27.25q16.47-10.37,31.87-22.27A352.15,352.15,0,0,0,577,761.67a247.26,247.26,0,0,0,36.64-42.59,166.54,166.54,0,0,0,13.53-24c4.87-10.8,8.37-22,9.24-33.88,1-13.53-1.73-26.13-9.62-37.38a56.23,56.23,0,0,0-17.23-15.66,77.51,77.51,0,0,0-14.65-6.84,5.56,5.56,0,0,1-2.33-1.37c1.35.28,2.7.53,4,.86a115.86,115.86,0,0,1,27,9.86c10.2,5.41,18.92,12.54,25.51,22.1a59.78,59.78,0,0,1,8.74,19.26c3,11.86,2.91,23.74.6,35.7a129.1,129.1,0,0,1-11.5,33,189.08,189.08,0,0,1-21.63,34A353.4,353.4,0,0,1,597.52,786c-5.22,5.13-10.76,10-16.23,14.83-3.79,3.37-7.62,6.71-11.61,9.83-5.65,4.41-11.42,8.66-17.22,12.87-4.36,3.16-8.82,6.2-13.31,9.19q-15.4,10.25-31.63,19.11a445.39,445.39,0,0,1-44.47,21.28,394.84,394.84,0,0,1-43.85,15.14,321.24,321.24,0,0,1-52.86,10.37,223.27,223.27,0,0,1-44.62.55c-10.85-1-21.61-2.77-31.92-6.38-12.12-4.24-23.28-10.26-32.57-19.33-11.32-11-17.47-24.5-18.81-40.26-1.17-13.85,1.33-27.14,5.85-40.12,5.34-15.35,13.32-29.33,22.58-42.6a267.54,267.54,0,0,1,30.06-35.62c.5-.5,1-1,1.54-1.44Z"/><path class="cls-1" d="M299.64,710.54c-2.45,2.83-4.94,5.63-7.34,8.5-10.19,12.15-19.14,25.14-25.93,39.51-5.58,11.84-9.46,24.18-10,37.38-.51,12.68,2.56,24.35,10.28,34.59a57.34,57.34,0,0,0,19.63,16.41,96.62,96.62,0,0,0,30.27,9.52c16.45,2.51,32.87,2.1,49.33.15a294.44,294.44,0,0,0,53.95-12,391.06,391.06,0,0,0,42.65-16.45,398.68,398.68,0,0,0,49.11-26.44q16-10.07,30.92-21.61a342.56,342.56,0,0,0,27.11-23.08,239.83,239.83,0,0,0,35.54-41.32,161.58,161.58,0,0,0,13.13-23.24c4.73-10.47,8.12-21.33,9-32.87,1-13.12-1.68-25.35-9.32-36.27a54.75,54.75,0,0,0-16.73-15.19A75,75,0,0,0,587,601.54a5.49,5.49,0,0,1-2.26-1.32c1.31.27,2.62.51,3.92.83a112.71,112.71,0,0,1,26.14,9.56c9.91,5.26,18.36,12.18,24.76,21.45A58.26,58.26,0,0,1,648,650.75c3,11.5,2.82,23,.58,34.63a124.59,124.59,0,0,1-11.16,32,182.69,182.69,0,0,1-21,33,341.23,341.23,0,0,1-27,30.3c-5.06,5-10.43,9.66-15.74,14.38-3.68,3.27-7.4,6.51-11.27,9.54-5.48,4.28-11.07,8.41-16.7,12.49-4.24,3.07-8.56,6-12.92,8.92q-14.94,9.93-30.69,18.53a428.71,428.71,0,0,1-43.14,20.65,379.67,379.67,0,0,1-42.55,14.69,313.85,313.85,0,0,1-51.27,10.07,216.82,216.82,0,0,1-43.3.52c-10.53-1-21-2.68-31-6.18-11.76-4.11-22.58-10-31.6-18.76-11-10.72-17-23.77-18.25-39.06C240,813,242.41,800.1,246.79,787.5c5.19-14.88,12.93-28.45,21.91-41.33a260,260,0,0,1,29.17-34.55c.48-.49,1-.94,1.5-1.4Z"/><text class="cls-3" transform="translate(688.69 792.65)">O<tspan class="cls-4" x="121.53" y="0">D</tspan><tspan x="239.32" y="0">ANA</tspan></text></svg>