<svg id="Layer_1" data-name="Layer 1" xmlns="http://www.w3.org/2000/svg" viewBox="0 0 1500 1500"><defs><style>.cls-1,.cls-3{fill:#29992f;}.cls-2{fill:#a4f7a6;}.cls-3{font-size:228.46px;font-family:Montserrat-SemiBold, Montserrat;font-weight:600;}.cls-4{letter-spacing:-0.01em;}</style></defs><path class="cls-1" d="M755.48,647c1,.7,2,1.37,2.9,2.1,6.16,4.76,12.37,9.47,18.44,14.35,2.69,2.16,2.51,3.72-.21,5.86-3.82,3-12.05,3.21-16.07.37l-9.08-6.44c-3-2.12-6-4.13-7.6-7.8-1.42-3.17-4.45-4.88-8-5.39-.71-.11-1.42-.24-2.38-.41,1.62-6.07,3.44-12.29-2-17.09-4.9-4.35-10.84-5-17.32-2.66-1.47-6.76-4.86-11.43-12.18-12-5.07-.42-9,1-11.17,6.21a17.51,17.51,0,0,1-2.06-1.15c-7.17-5.29-14.28-10.65-21.49-15.88-1.61-1.17-2.27-2.36-1.83-4.35,4.74-21.49,9.4-43,14.17-64.46.66-3,1.8-5.91,2.76-8.85a14,14,0,0,1,1.06-2,54.54,54.54,0,0,0,21.27,4l.32.82c-.86.91-1.68,1.85-2.58,2.72-3.84,3.69-7.58,7.48-11.58,11-2.61,2.28-2.64,4.85-1.71,7.71a10.45,10.45,0,0,0,11.07,7,56.63,56.63,0,0,0,11.22-2.32c7.26-2.25,13.74-6.14,20-10.37s13.61-6.55,20.95-8.16a14.88,14.88,0,0,1,11.64,2.42c24.22,16.31,48.58,32.4,72.8,48.7a51.61,51.61,0,0,1,15.75,17c4.2,7.23,3.21,15.89-2.75,21.42a9.36,9.36,0,0,1-9.86,2.37,30.56,30.56,0,0,1-7.62-3.71c-7.8-5.25-15.46-10.7-23.18-16.07a6.7,6.7,0,0,0-3.51-1.39c.91.86,1.84,1.68,2.71,2.57,4.12,4.26,8.42,8.37,12.27,12.86,5.32,6.21,5.53,13.07,2.12,20.44-2.79,6-11,8.47-16.87,6.43a8.93,8.93,0,0,1-2.65-2c-6.66-5.92-13.29-11.86-20-17.76-1-.88-1.89-2.43-4.15-1.22,1,1.13,1.89,2.12,2.8,3.05,6,6.12,11.95,12.2,17.88,18.34a10.6,10.6,0,0,1,2.34,3.29c1.31,3.32-.21,6.71-3.6,8.31-3.73,1.77-7.72,1.61-11.66,1.2-1-.11-1.94-1-2.82-1.68-5.9-4.49-11.75-9.06-17.68-13.53-3.15-2.38-6.82-3.64-10.47-4.91Z"/><path class="cls-1" d="M890.55,583.46c-3.65,1.8-7,3.33-10.26,5.11a25.46,25.46,0,0,0-5,3.65c-5.52,5.12-11,10.36-16.63,15.77-.71-.88-1.24-1.48-1.7-2.13-5.88-8.17-12.38-15.61-20.95-21.25-23.54-15.53-46.91-31.33-70.28-47.11-2.95-2-5.78-3.17-9.33-2.12-6.39,1.89-12.81,3.67-19.19,5.56A5.26,5.26,0,0,0,735,542.3c-4.82,5.07-11,8-17.27,10.58-3,1.21-6,2.29-9.08,3.23a19.14,19.14,0,0,1-12.39-.55c-2.89-1-4-3-3.5-5.75a6,6,0,0,1,1.48-2.86,287.59,287.59,0,0,1,29.94-27.17,14.32,14.32,0,0,1,4-1.84q15.54-5.54,31.12-11a32.48,32.48,0,0,1,17.16-1.34q26.77,5.12,53.63,9.88c4.62.82,9.31,1.43,14,.3,1.32-.31,2.85-.41,3.87-1.16,2.62-1.92,4.76-.91,6.62.88a70.36,70.36,0,0,1,7.29,7.87,119.78,119.78,0,0,1,13.83,24.09c4.86,10.82,9.28,21.84,13.87,32.79C889.93,581.13,890.13,582.09,890.55,583.46Z"/><path class="cls-1" d="M659.57,605.22l-33.34-5.83c-.13-3,22.33-77.49,25.46-84.56,8.92,2.47,17.64,5.74,26.63,8.53-3.6,13.89-7.18,27.38-10.57,40.93S661.12,591.14,659.57,605.22Z"/><path class="cls-1" d="M854.23,510.51c1.22-.66,1.84-1.05,2.49-1.34q9.31-4.19,18.64-8.32c3-1.34,3.16-1.42,5.35,1.15a105.61,105.61,0,0,1,7.26,9.37c8.56,12.68,14.87,26.53,20.69,40.6,3.17,7.66,6,15.45,9,23.19.48,1.25.84,2.55,1.4,4.29l-22.79,6.85c-2.34-6.41-4.44-12.47-6.74-18.45-3.07-8-6-16-9.56-23.73A139.24,139.24,0,0,0,871,527.88,55.85,55.85,0,0,0,854.23,510.51Z"/><path class="cls-1" d="M707,648.48c.87-2.25,1.57-4.59,2.65-6.74,1.28-2.53,3-4.86,4.32-7.35a4,4,0,0,1,3.48-2.37,13.93,13.93,0,0,1,9.75,2.83,9.87,9.87,0,0,1,2.85,10.8c-1.25,3.35-2.7,6.64-4.16,9.91-2.43,5.43-10.58,6.34-14.18,2.56C708.56,654.81,707.37,652.67,707,648.48Z"/><path class="cls-1" d="M686.29,638.81a63.12,63.12,0,0,1,2.49-6.39c1.35-2.62,3.08-5,4.53-7.62.89-1.58,2.17-2.49,3.9-2.21,2.63.44,5.42.74,7.79,1.86,4.19,2,5.85,7.25,4.11,11.79-1.19,3.1-2.47,6.18-3.89,9.18A8.87,8.87,0,0,1,691,648C688.44,645.59,686.17,642.94,686.29,638.81Z"/><path class="cls-1" d="M754.62,670.3c-5,2-10,3.71-15.4,3.59a6.6,6.6,0,0,1-4.68-1.76c-2-1.86-4.12-3.53-6.13-5.34-2.82-2.55-3-6-.48-8.81,3.77-4.3,8.94-4.8,13-1C745.53,661.23,749.91,665.69,754.62,670.3Z"/><path class="cls-1" d="M687.81,628c-1.09,3.15-2.81,5.58-6.4,6.37-3.85.85-7.49.49-10.49-2.05a11.36,11.36,0,0,1-3.12-4.86c-1.14-3.37-.15-9.21,1.71-12.89C673.27,615.45,683.29,622.79,687.81,628Z"/><path class="cls-2" d="M534.58,529.47c-4,4.62-8.06,9.19-12,13.87-16.61,19.83-31.22,41-42.29,64.47-9.11,19.3-15.43,39.44-16.3,61-.83,20.69,4.17,39.73,16.76,56.44a93.55,93.55,0,0,0,32,26.77c15.54,8.09,32.1,12.87,49.39,15.52,26.83,4.11,53.62,3.44,80.46.26,30-3.56,59.25-10.43,88-19.51a636.18,636.18,0,0,0,69.57-26.83,649.22,649.22,0,0,0,80.11-43.13Q906.42,661.87,930.8,643A555.27,555.27,0,0,0,975,605.38c11.09-10.53,22-21.32,31.79-33.08A402.21,402.21,0,0,0,1033,538a264.9,264.9,0,0,0,21.41-37.92c7.71-17.08,13.25-34.79,14.62-53.61,1.56-21.41-2.74-41.37-15.21-59.17-7.22-10.3-16.61-18.27-27.28-24.78a123.31,123.31,0,0,0-23.19-10.84,8.84,8.84,0,0,1-3.69-2.16c2.13.45,4.28.84,6.4,1.36,14.79,3.63,29.14,8.43,42.65,15.6,16.15,8.57,29.94,19.86,40.37,35A95,95,0,0,1,1103,431.93c4.83,18.77,4.6,37.57.94,56.5a203.43,203.43,0,0,1-18.2,52.21,298.53,298.53,0,0,1-34.24,53.77,560.25,560.25,0,0,1-44,49.42c-8.27,8.13-17,15.76-25.7,23.47-6,5.34-12,10.62-18.37,15.56-8.94,7-18.07,13.72-27.25,20.37-6.91,5-14,9.82-21.07,14.55Q890.73,734,865,748a703.78,703.78,0,0,1-70.37,33.68,623.23,623.23,0,0,1-69.42,24,509.81,509.81,0,0,1-83.65,16.42c-23.52,2.46-47.07,3.11-70.63.86-17.17-1.64-34.2-4.38-50.51-10.09-19.19-6.71-36.85-16.24-51.56-30.6-17.92-17.49-27.65-38.79-29.77-63.72-1.86-21.92,2.09-43,9.25-63.51,8.46-24.28,21.09-46.41,35.74-67.42a424.65,424.65,0,0,1,47.58-56.38c.79-.79,1.63-1.52,2.45-2.28Z"/><path class="cls-1" d="M536,524.46c-3.87,4.48-7.81,8.91-11.62,13.45-16.12,19.24-30.29,39.79-41,62.54-8.84,18.73-15,38.27-15.82,59.15-.8,20.07,4,38.55,16.27,54.76a90.7,90.7,0,0,0,31.07,26C530,748.18,546,752.82,562.8,755.39c26,4,52,3.34,78.06.25,29.11-3.45,57.49-10.12,85.41-18.92a617.8,617.8,0,0,0,67.5-26,629.57,629.57,0,0,0,77.72-41.84q25.28-15.93,48.94-34.2a539.71,539.71,0,0,0,42.91-36.54c10.77-10.22,21.33-20.69,30.85-32.09a389.75,389.75,0,0,0,25.41-33.31,256.48,256.48,0,0,0,20.78-36.78c7.48-16.58,12.85-33.76,14.18-52,1.51-20.77-2.66-40.13-14.76-57.4-7-10-16.11-17.73-26.47-24.05a119.39,119.39,0,0,0-22.5-10.51,8.58,8.58,0,0,1-3.57-2.1c2.07.44,4.15.81,6.21,1.32,14.34,3.53,28.27,8.18,41.37,15.14,15.68,8.31,29.06,19.27,39.18,33.94a92.05,92.05,0,0,1,13.43,29.58c4.68,18.2,4.46,36.45.91,54.81a197.59,197.59,0,0,1-17.65,50.66,290,290,0,0,1-33.22,52.16,542.2,542.2,0,0,1-42.66,47.95c-8,7.89-16.52,15.3-24.93,22.78-5.81,5.17-11.69,10.3-17.83,15.09-8.66,6.77-17.52,13.31-26.43,19.77-6.7,4.85-13.55,9.52-20.45,14.11q-23.64,15.74-48.57,29.34a681.6,681.6,0,0,1-68.28,32.68A605.86,605.86,0,0,1,721,792.43a495.61,495.61,0,0,1-81.16,15.92c-22.81,2.39-45.66,3-68.53.84-16.65-1.59-33.17-4.25-49-9.79-18.62-6.51-35.75-15.76-50-29.69-17.38-17-26.83-37.63-28.88-61.82-1.81-21.27,2-41.68,9-61.62,8.21-23.56,20.46-45,34.67-65.41a412.86,412.86,0,0,1,46.17-54.7c.76-.77,1.58-1.48,2.37-2.21Z"/><text class="cls-3" transform="translate(296.4 1089.96)">O<tspan class="cls-4" x="192.36" y="0">D</tspan><tspan x="378.78" y="0">ANA</tspan></text></svg>